<?xml version="1.0" encoding="UTF-8" standalone="no"?>
<svg
   xmlns:dc="http://purl.org/dc/elements/1.1/"
   xmlns:cc="http://creativecommons.org/ns#"
   xmlns:rdf="http://www.w3.org/1999/02/22-rdf-syntax-ns#"
   xmlns:svg="http://www.w3.org/2000/svg"
   xmlns="http://www.w3.org/2000/svg"
   xmlns:sodipodi="http://sodipodi.sourceforge.net/DTD/sodipodi-0.dtd"
   xmlns:inkscape="http://www.inkscape.org/namespaces/inkscape"
   inkscape:version="1.0 (4035a4fb49, 2020-05-01)"
   sodipodi:docname="lock.svg"
   id="svg10"
   viewBox="0 0 700 700"
   version="1.1"
   height="700pt"
   width="700pt">
  <metadata
     id="metadata16">
    <rdf:RDF>
      <cc:Work
         rdf:about="">
        <dc:format>image/svg+xml</dc:format>
        <dc:type
           rdf:resource="http://purl.org/dc/dcmitype/StillImage" />
      </cc:Work>
    </rdf:RDF>
  </metadata>
  <defs
     id="defs14" />
  <sodipodi:namedview
     inkscape:current-layer="g8"
     inkscape:window-maximized="1"
     inkscape:window-y="-8"
     inkscape:window-x="-8"
     inkscape:cy="465.30559"
     inkscape:cx="466.66667"
     inkscape:zoom="0.50774086"
     showgrid="false"
     id="namedview12"
     inkscape:window-height="705"
     inkscape:window-width="1366"
     inkscape:pageshadow="2"
     inkscape:pageopacity="0"
     guidetolerance="10"
     gridtolerance="10"
     objecttolerance="10"
     borderopacity="1"
     bordercolor="#666666"
     pagecolor="#ffffff" />
  <g
     id="g8">
    <g
       transform="translate(-17.727071,-14.198985)"
       id="g850">
      <g
         id="g844">
        <path
           id="path2"
           d="m 577.72558,383.02649 v -246.52 c 0,-28.895 -23.434,-52.308995 -52.309,-52.308995 h -385.38 c -28.895,0 -52.309002,23.413995 -52.309002,52.308995 v 385.37 c 0,28.91 23.414002,52.324 52.309002,52.324 h 246.52 c 24.238,41.809 69.352,70 121.15,70 77.312,0 140.02,-62.703 140.02,-140.05 0,-51.785 -28.191,-96.898 -70,-121.12 z m -408,29.875 c 1.3828,3.5156 4.7773,3.7969 8.5586,3.7969 h 220.15 c -8.4336,10.535 -15.383,22.297 -20.527,35 h -220.85 c -9.293,0 -16.836,-7.543 -16.836,-16.836 v -281.33 c 0,-9.293 7.543,-16.836 16.836,-16.836 h 351.33 c 9.293,0 16.836,7.543 16.836,16.836 v 211.82 c -5.7383,-0.71875 -11.566,-1.207 -17.516,-1.207 -11.777,0 -23.152,1.6094 -34.074,4.3594 l -77.613,-115.82 c -5.3906,-8.5742 -14.156,-8.0664 -19.512,0.50781 l -50.031,80.062 c -5.3906,8.5586 -15.645,9.7305 -22.801,2.5742 l -14.926,-14.926 c -7.1562,-7.1758 -18.883,-7.1758 -26.039,0 l -90.668,83.949 c -2.7891,2.582 -3.7148,4.5234 -2.3164,8.043 z m 337.98,178.8 c -48.281,0 -87.551,-39.27 -87.551,-87.551 0,-48.266 39.27,-87.516 87.551,-87.516 48.266,0 87.516,39.254 87.516,87.516 0,48.281 -39.254,87.551 -87.516,87.551 z" />
        <path
           id="path4"
           d="m 280.22558,224.19649 c 0,28.996 -23.504,52.5 -52.5,52.5 -28.996,0 -52.5,-23.504 -52.5,-52.5 0,-28.996 23.504,-52.5 52.5,-52.5 28.996,0 52.5,23.504 52.5,52.5" />
        <path
           id="path6"
           d="m 541.49558,486.69649 h 1.2266 v -17.832 c 0,-19.32 -15.68,-35 -35,-35 -19.32,0 -35,15.68 -35,35 v 17.832 h -4.7773 c -8.6992,0 -12.723,6.9844 -12.723,15.68 v 38.551 c 0,8.6836 4.0234,15.77 12.723,15.77 h 73.551 c 8.6797,0 18.727,-7.0859 18.727,-15.766 v -38.551 c 0,-8.6992 -10.047,-15.684 -18.727,-15.684 z m -16.273,0 h -35 v -17.832 c 0,-9.6602 7.8398,-17.5 17.5,-17.5 9.6602,0 17.5,7.8398 17.5,17.5 z" />
      </g>
    </g>
  </g>
</svg>
